<svg xmlns="http://www.w3.org/2000/svg" viewBox="0 0 100 100" width="100" height="100">
  <!-- 头像背景 -->
  <circle cx="50" cy="50" r="48" fill="#76B900" />
  
  <!-- 头像轮廓 -->
  <circle cx="50" cy="50" r="45" fill="#F5F5F5" />
  
  <!-- 脸部 -->
  <circle cx="50" cy="50" r="30" fill="#FFD7B5" />
  
  <!-- 眼睛 -->
  <circle cx="38" cy="42" r="5" fill="#333" />
  <circle cx="62" cy="42" r="5" fill="#333" />
  <circle cx="37" cy="40" r="2" fill="white" />
  <circle cx="61" cy="40" r="2" fill="white" />
  
  <!-- 眉毛 -->
  <path d="M30,35 Q38,32 46,35" fill="none" stroke="#333" stroke-width="2" stroke-linecap="round" />
  <path d="M54,35 Q62,32 70,35" fill="none" stroke="#333" stroke-width="2" stroke-linecap="round" />
  
  <!-- 嘴巴 -->
  <path d="M38,65 Q50,75 62,65" fill="none" stroke="#333" stroke-width="2" stroke-linecap="round" />
  
  <!-- 头发 -->
  <path d="M50,20 Q25,20 20,45 Q20,70 30,70 Q30,80 40,80 Q40,90 50,90 Q60,90 60,80 Q70,80 70,70 Q80,70 80,45 Q75,20 50,20 Z" fill="#333" />
</svg>